<?xml version="1.0" encoding="UTF-8"?>
<svg id="Livello_1" data-name="Livello 1" xmlns="http://www.w3.org/2000/svg" viewBox="0 0 1920 1080">
  <defs>
    <style>
      .cls-1, .cls-2, .cls-3, .cls-4 {
        fill: #fff;
        stroke: #fff;
      }

      .cls-1, .cls-2, .cls-4 {
        stroke-miterlimit: 10;
      }

      .cls-1, .cls-3 {
        stroke-width: 3px;
      }

      .cls-2 {
        stroke-width: 5px;
      }

      .cls-5 {
        fill: none;
      }

      .cls-6 {
        fill: #f52084;
      }

      .cls-7 {
        fill: #0ef;
      }
    </style>
  </defs>
  <path class="cls-6" d="m1267.91,532.56l.32,18.08-7.2,18-6.82,13.27-5.35,2.91-3.05-2.46-2.24-1.81-.45-.37-21.57-20.82-77.43-74.73-.47-.45,3.83-5.32,11.8-8.6s10.51-3.98,11.03-4.24c.53-.28,17.31-3.75,17.31-3.75l16.99-.3,12.39,3.4,12.66,3.73,12.58,7.12,13.63,12.86,7.44,21.73,2.35,11.15,2.25,10.62Z"/>
  <path class="cls-7" d="m1483.21,487.24l3.83-5.32,11.81-8.6s10.5-3.97,11.03-4.25,17.29-3.74,17.29-3.74l17-.3,12.4,3.39,12.67,3.74,12.58,7.12,13.62,12.86,7.43,21.72,4.62,21.77.32,18.09-7.2,17.99-6.81,13.28-5.35,2.91-5.76-4.65"/>
  <line class="cls-4" x1="1185.52" y1="473.86" x2="1185.52" y2="473.86"/>
  <line class="cls-4" x1="1107.68" y1="595.6" x2="1107.68" y2="595.6"/>
  <path class="cls-3" d="m1291.43,530.82c-.53-8.11-2.12-15.82-4.77-23.18-6.57-18.15-17.67-29.27-22.97-34.42-5.88-5.75-11.28-9.53-13.74-11.17-4.1-2.74-10.03-6.29-17.34-9.19-10.97-4.36-22.82-6.56-35.56-6.56-26.42,0-49.03,8.91-67.84,26.72-18.83,17.8-28.24,39.18-28.24,64.14s9.28,47.87,27.83,66.04c18.55,18.17,41.03,27.26,67.45,27.26,15.93,0,30.38-3.19,43.33-9.59,7.5-3.69,14.52-8.44,21.02-14.25,1.16-1.05,2.3-2.12,3.42-3.22,13.72-13.43,22.32-29.13,25.82-47.05,1.19-6.13,1.8-12.52,1.8-19.19,0-2.14-.07-4.26-.21-6.34Zm-66.81,69.7c-8.2,3.49-17.07,5.24-26.6,5.24-20.27,0-37.4-6.52-51.36-19.58-13.99-13.06-20.97-29.04-20.97-47.93s6.81-34.58,20.42-47.85c.25-.23.48-.46.73-.69.16-.16.32-.32.48-.46,13.36-12.52,29.33-18.78,47.85-18.78,20.08,0,37,6.54,50.74,19.6,11.56,10.97,18.26,24.07,20.11,39.3.34,2.89.52,5.84.52,8.89,0,5.97-.71,11.69-2.16,17.12-2.96,11.28-9,21.42-18.12,30.39-.14.14-.29.29-.43.41-.41.41-.84.82-1.26,1.19-6.15,5.72-12.77,10.08-19.95,13.15Z"/>
  <path class="cls-3" d="m1627.64,530.82c-.53-8.11-2.12-15.82-4.77-23.18-6.57-18.15-17.67-29.27-22.97-34.42-5.88-5.75-11.28-9.53-13.74-11.17-4.1-2.74-10.03-6.29-17.34-9.19-10.97-4.36-22.82-6.56-35.56-6.56-26.42,0-49.03,8.91-67.84,26.72-18.83,17.8-28.24,39.18-28.24,64.14s9.28,47.87,27.83,66.04c18.55,18.17,41.03,27.26,67.45,27.26,15.93,0,30.38-3.19,43.33-9.59,7.5-3.69,14.52-8.44,21.02-14.25,1.16-1.05,2.3-2.12,3.42-3.22,13.72-13.43,22.32-29.13,25.82-47.05,1.19-6.13,1.8-12.52,1.8-19.19,0-2.14-.07-4.26-.21-6.34Zm-66.81,69.7c-8.2,3.49-17.07,5.24-26.6,5.24-20.27,0-37.4-6.52-51.36-19.58-13.99-13.06-20.97-29.04-20.97-47.93s6.81-34.58,20.42-47.85c.25-.23.48-.46.73-.69.16-.16.32-.32.48-.46,13.36-12.52,29.33-18.78,47.85-18.78,20.08,0,37,6.54,50.74,19.6,11.56,10.97,18.26,24.07,20.11,39.3.34,2.89.52,5.84.52,8.89,0,5.97-.71,11.69-2.16,17.12-2.96,11.28-9,21.42-18.12,30.39-.14.14-.29.29-.43.41-.41.41-.84.82-1.26,1.19-6.15,5.72-12.77,10.08-19.95,13.15Z"/>
  <path class="cls-4" d="m1585.9,699.64h-441.1c-63.85,0-115.8-52.32-115.8-116.64v-92.45c0-64.31,51.95-116.64,115.8-116.64h441.1c63.85,0,115.8,52.32,115.8,116.64v92.45c0,64.31-51.95,116.64-115.8,116.64Zm-441.1-292.48c-45.65,0-82.8,37.41-82.8,83.4v92.45c0,45.98,37.14,83.4,82.8,83.4h441.1c45.65,0,82.8-37.41,82.8-83.4v-92.45c0-45.98-37.14-83.4-82.8-83.4h-441.1Z"/>
  <path class="cls-4" d="m1413.89,476.53v22.62h-66.33c-11.69,0-16.87,6.33-16.87,15.34,0,7.86,4.03,15.34,19.17,15.34h30.29c35.27,0,43.52,19.55,43.52,38.15,0,21.85-11.69,37.96-41.22,37.96h-72.08v-22.62h72.85c12.27,0,17.83-6.71,17.83-16.1,0-8.44-4.41-16.1-20.32-16.1h-30.1c-34.51,0-42.56-19.36-42.56-37.38,0-21.47,11.5-37.19,40.26-37.19h65.56Z"/>
  <line class="cls-4" x1="1715.16" y1="457.43" x2="1715.16" y2="457.43"/>
  <line class="cls-5" x1="1061.44" y1="958.43" x2="1061.44" y2="958.43"/>
  <line class="cls-1" x1="1186.18" y1="472.38" x2="1186.18" y2="472.38"/>
  <line class="cls-4" x1="1108.03" y1="594.58" x2="1108.03" y2="594.58"/>
  <path class="cls-2" d="m392.64,408.06l-9.59,24.44-74.43,189.85-83.67-214.28h-30.08l103.02,258.68h20.68l46.31-115.43,9.5-23.69,38.16-95.12,9.8-24.44h-29.7Z"/>
  <path class="cls-2" d="m443.11,551.25l-10.49-12.72-27.07,8.65,3.36,4.14,93.64,115.43h35.72l-95.16-115.49Zm67.15-108.6c-6.39-10.77-15.6-19.23-27.64-25.38-12.03-6.13-26.46-9.21-43.24-9.21h-46.75l-9.59,24.44h56.33c17.04,0,30.08,4.46,39.1,13.35,9.02,8.91,13.54,20.38,13.54,34.4s-4.57,25.75-13.72,34.4c-9.16,8.65-22.25,12.97-39.29,12.97h-74.82v23.69h75.2c1.25,0,2.49-.01,3.72-.06,15.2-.4,28.39-3.4,39.52-8.96,12.03-6.02,21.24-14.34,27.64-25,6.39-10.64,9.59-23.25,9.59-37.79,0-13.77-3.2-26.06-9.59-36.85Z"/>
  <path class="cls-2" d="m546.44,432.98v-25.19h210.17v25.19h-210.17Zm91.36,233.48v-251.53h27.82v251.53h-27.82Z"/>
  <path class="cls-2" d="m894.93,670.77c-18.8,0-35.53-4.19-50.19-12.6-14.66-8.39-26.26-19.93-34.78-34.59-8.52-14.66-12.78-31.14-12.78-49.44v-165.81h27.82v164.31c0,14.54,3.07,27.2,9.21,37.97,6.14,10.78,14.48,19.05,25,24.81,10.53,5.77,22.43,8.65,35.72,8.65s25.13-2.88,35.53-8.65c10.4-5.76,18.61-14.03,24.63-24.81,6.02-10.77,9.02-23.31,9.02-37.6v-164.68h27.82v166.19c0,18.3-4.2,34.72-12.6,49.25-8.4,14.54-19.93,26.01-34.59,34.4-14.66,8.4-31.27,12.6-49.82,12.6Z"/>
</svg>